<svg width="70" height="61" viewBox="0 0 70 61" fill="none" xmlns="http://www.w3.org/2000/svg">
<path d="M65.3482 35.1313C65.3482 35.1313 65.3482 35.3122 65.3281 35.3927C65.3281 35.4731 65.3482 35.5334 65.3482 35.6138V35.1313ZM63.5989 19.7895H45.241C43.0292 19.7895 41.2195 17.9798 41.2195 15.768V8.04682C41.2195 3.52269 37.4796 -0.136822 32.9153 0.00392859C30.804 0.0642503 29.1552 1.89401 29.1552 4.02538V12.0683C29.1552 17.7787 21.1123 21.8002 21.1123 25.8216V51.5388C21.1123 53.0267 21.9367 54.394 23.2437 55.0978C23.9675 55.4798 24.8321 55.9423 25.737 56.4248C30.1203 58.7774 35.0265 60.0039 39.993 60.0039H55.556C58.7329 60.0039 61.3268 57.4302 61.3268 54.2331V53.7104C61.3268 52.7452 61.0654 51.8605 60.6431 51.0562C62.2517 50.0307 63.3375 48.2412 63.3375 46.1903V44.6621C63.3375 43.0334 62.6539 41.5857 61.5882 40.52C63.6994 39.7358 65.2276 37.7452 65.3281 35.3927C65.2678 34.0254 64.745 32.7787 63.9005 31.8136C66.9367 31.6527 69.3697 29.1594 69.3697 26.083V25.5602C69.3697 22.3833 66.7959 19.7895 63.5989 19.7895Z" fill="#1D1D1C"/>
<path d="M15.0804 21.8H1.00536C0.442359 21.8 0 22.2424 0 22.8054V54.977C0 55.54 0.442359 55.9824 1.00536 55.9824H15.0804C15.6434 55.9824 16.0858 55.54 16.0858 54.977V22.8054C16.0858 22.2424 15.6434 21.8 15.0804 21.8ZM8.0429 49.9502C6.37399 49.9502 5.02681 48.603 5.02681 46.9341C5.02681 45.2652 6.37399 43.918 8.0429 43.918C9.7118 43.918 11.059 45.2652 11.059 46.9341C11.059 48.603 9.7118 49.9502 8.0429 49.9502Z" fill="#1D1D1C"/>
</svg>
