<svg width="60" height="60" viewBox="0 0 60 60" fill="none" xmlns="http://www.w3.org/2000/svg">
<path d="M30 0C13.458 0 0 13.458 0 30C0 46.542 13.458 60 30 60C46.542 60 60 46.542 60 30C60 13.458 46.542 0 30 0ZM42.558 32.22L30 44.778L17.442 32.22C16.666 31.454 16.0499 30.5415 15.6294 29.5354C15.2088 28.5294 14.9923 27.4499 14.9923 26.3595C14.9923 25.2691 15.2088 24.1896 15.6294 23.1836C16.0499 22.1775 16.666 21.265 17.442 20.499C18.208 19.7235 19.1203 19.1077 20.126 18.6875C21.1318 18.2672 22.211 18.0508 23.301 18.0508C24.391 18.0508 25.4702 18.2672 26.476 18.6875C27.4817 19.1077 28.394 19.7235 29.16 20.499L30 21.336L30.837 20.499C31.603 19.7235 32.5153 19.1077 33.521 18.6875C34.5268 18.2672 35.606 18.0508 36.696 18.0508C37.786 18.0508 38.8652 18.2672 39.871 18.6875C40.8767 19.1077 41.789 19.7235 42.555 20.499C43.3312 21.2648 43.9475 22.1772 44.3683 23.1831C44.7891 24.189 45.0059 25.2685 45.0062 26.3589C45.0065 27.4493 44.7902 28.5288 44.3699 29.535C43.9497 30.5411 43.3338 31.4538 42.558 32.22Z" fill="#1D1D1C"/>
</svg>
