<svg width="55" height="60" viewBox="0 0 55 60" fill="none" xmlns="http://www.w3.org/2000/svg">
<path d="M54.0568 14.7006C54.007 14.1965 53.83 13.7133 53.5425 13.2962C53.255 12.8791 52.8664 12.5418 52.413 12.3159L28.4155 0.317115C27.9988 0.108575 27.5392 0 27.0731 0C26.6071 0 26.1475 0.108575 25.7308 0.317115L1.73328 12.3159C1.28115 12.5431 0.893709 12.8808 0.606875 13.2977C0.320041 13.7146 0.1431 14.1971 0.0924552 14.7006C0.0594586 15.0216 -2.79024 46.9982 25.8568 59.7379C26.2395 59.9107 26.6547 60 27.0746 60C27.4946 60 27.9097 59.9107 28.2925 59.7379C56.9395 46.9982 54.0898 15.0246 54.0568 14.7006ZM27.0746 53.6875V29.999H7.60667C6.44195 25.7345 5.89245 21.3254 5.97484 16.9054L27.0746 6.35549V29.999H46.4526C44.1759 38.2182 38.9594 47.9341 27.0746 53.6875Z" fill="#1D1D1C"/>
</svg>
