<svg width="45" height="60" viewBox="0 0 45 60" fill="none" xmlns="http://www.w3.org/2000/svg">
<path d="M21.5845 48.7517L16.1875 60C16.12 59.9992 16.0056 59.9667 15.9362 59.8901L12.1554 49.9537L12.1215 49.8986C11.7931 49.3675 11.1304 49.0484 10.51 49.1225L10.4465 49.1299L0.24317 52.3676C0.139801 52.3611 0.0428724 52.2923 0 52.2405L7.83226 35.9171C8.15338 36.4419 8.31538 37.0491 8.29674 37.6835L8.26912 38.6221L9.16876 38.3527C10.0269 38.0956 10.9257 38.2002 11.6996 38.6474C12.4735 39.0942 13.0134 39.82 13.2194 40.6914L13.4357 41.6052L14.2348 41.1123C14.9975 40.6419 15.8928 40.5102 16.756 40.7414C17.2625 40.8769 17.716 41.1265 18.0901 41.469L21.5845 48.7517Z" fill="#0A0908"/>
<path d="M44.6726 52.2405C44.6298 52.2923 44.5328 52.3611 44.4295 52.3676L34.2872 49.1494L34.2262 49.1299L34.1626 49.1225C33.5422 49.0484 32.8795 49.3675 32.5511 49.8986L32.5172 49.9537L28.7365 59.8901C28.667 59.9667 28.5526 59.9992 28.4852 60L23.0882 48.7519L22.7121 47.9681L22.3363 47.1847L19.9983 42.312C20.5943 41.7584 21.3616 41.4561 22.1819 41.4561C23.0756 41.4561 23.9063 41.8149 24.5209 42.4664L24.5734 42.5222L25.0718 43.0504L25.1653 43.1495L25.6107 42.3229C25.8855 41.8128 26.2794 41.3977 26.7569 41.1057C27.0175 40.9461 27.3032 40.8234 27.6081 40.7417C28.4714 40.5104 29.3667 40.642 30.1289 41.1125L30.9284 41.6059L31.1446 40.6917C31.3507 39.8202 31.8904 39.0941 32.6648 38.6472C33.4384 38.2002 34.337 38.0956 35.1951 38.3529L36.0949 38.6226L36.0673 37.6837C36.0454 36.9391 36.2723 36.2321 36.7129 35.6517L44.6726 52.2405Z" fill="#0A0908"/>
<path d="M41.7913 20.4906C41.7913 19.8503 41.9216 19.2304 42.1784 18.6485C42.3127 18.3443 42.478 18.0584 42.6725 17.7931C42.4159 17.587 42.1824 17.3537 41.974 17.0944C41.5753 16.5989 41.2891 16.0339 41.1233 15.4153C40.9576 14.7966 40.923 14.1643 41.0205 13.5358C41.0713 13.2072 41.1569 12.8882 41.2762 12.5816C40.9751 12.4489 40.689 12.284 40.4206 12.0876C39.9072 11.7121 39.4844 11.2405 39.1643 10.6859C38.8442 10.1311 38.6471 9.52936 38.5786 8.89695C38.5427 8.56635 38.5427 8.23624 38.5786 7.90902C38.2534 7.85904 37.9345 7.77363 37.6244 7.65348C37.0313 7.42353 36.5009 7.0775 36.0481 6.62472C35.5953 6.17193 35.2491 5.64153 35.0192 5.04827C34.899 4.73833 34.8136 4.41925 34.7636 4.09406C34.4364 4.12981 34.1063 4.12998 33.7756 4.09406C33.1431 4.0256 32.5414 3.82852 31.9868 3.50825C31.4323 3.18815 30.9605 2.76552 30.585 2.25207C30.3888 1.98365 30.2238 1.69761 30.0912 1.39649C29.7845 1.51562 29.4654 1.60119 29.1369 1.6522C28.5082 1.74963 27.8758 1.71507 27.2573 1.54934C26.6387 1.38361 26.0738 1.0974 25.5781 0.698667C25.3192 0.490236 25.0857 0.256726 24.8798 0C24.6142 0.194536 24.3284 0.359755 24.0242 0.493965C23.4423 0.75086 22.8226 0.881172 22.182 0.881172C21.5415 0.881172 20.922 0.75086 20.3401 0.494134C20.0357 0.359755 19.7498 0.194536 19.4843 0C19.2784 0.256726 19.0449 0.490236 18.7858 0.698667C18.2901 1.0974 17.7253 1.38361 17.1068 1.54934C16.4883 1.71507 15.8559 1.74963 15.2272 1.6522C14.8985 1.60119 14.5797 1.51562 14.2728 1.39649C14.1403 1.69761 13.9753 1.98365 13.779 2.25207C13.4034 2.76552 12.9318 3.18815 12.3771 3.50842C11.8227 3.82852 11.2208 4.0256 10.5884 4.09406C10.2579 4.12998 9.92765 4.12981 9.6006 4.09406C9.55044 4.41925 9.46504 4.73833 9.34489 5.04844C9.11494 5.64153 8.76874 6.17193 8.31595 6.62472C7.86317 7.0775 7.33277 7.42353 6.73967 7.65348C6.42957 7.77363 6.11065 7.85903 5.78547 7.90919C5.82122 8.23624 5.82139 8.56635 5.78547 8.89695C5.71701 9.52936 5.51993 10.1313 5.19983 10.6859C4.87955 11.2407 4.45676 11.7121 3.94348 12.0876C3.67506 12.284 3.38902 12.4491 3.08789 12.5816C3.20702 12.8883 3.2926 13.2072 3.3436 13.536C3.44104 14.1645 3.40647 14.7969 3.24074 15.4154C3.07502 16.0339 2.7888 16.5989 2.3899 17.0946C2.18147 17.3537 1.94796 17.587 1.69141 17.7931C1.88594 18.0584 2.05116 18.3443 2.18537 18.6485C2.44227 19.2306 2.57258 19.8504 2.57258 20.4908C2.57258 21.1312 2.44227 21.7509 2.18537 22.3328C2.05116 22.637 1.88594 22.9228 1.69141 23.1882C1.94796 23.3943 2.18147 23.6278 2.39007 23.8869C2.7888 24.3825 3.07502 24.9477 3.24074 25.5662C3.40647 26.1845 3.44104 26.8169 3.3436 27.4456C3.2926 27.7742 3.20702 28.0931 3.08789 28.3998C3.38902 28.5323 3.67506 28.6974 3.94348 28.8936C4.4571 29.2693 4.87972 29.7411 5.19983 30.2957C5.51993 30.8502 5.71701 31.4519 5.78547 32.0843C5.82139 32.4151 5.82122 32.7452 5.78547 33.0722C6.11065 33.1224 6.42957 33.2078 6.73967 33.3279C6.97471 33.4189 7.19975 33.5282 7.41411 33.6552C7.61102 33.7718 7.79877 33.9033 7.9767 34.0492C8.09431 34.1454 8.2075 34.2479 8.31629 34.3567C8.37679 34.4172 8.43542 34.4792 8.49202 34.5424C8.85957 34.9524 9.14578 35.4192 9.34489 35.9328C9.46504 36.2429 9.55044 36.562 9.6006 36.8872C9.92782 36.8514 10.2579 36.8513 10.5885 36.8872C11.2213 36.9557 11.8232 37.1529 12.3776 37.4734C12.9319 37.7935 13.4035 38.2159 13.779 38.7294C13.9754 38.9978 14.1405 39.2837 14.273 39.5849C14.5797 39.4656 14.8988 39.3801 15.2274 39.3292C15.4597 39.2931 15.6927 39.2752 15.9252 39.2752C16.3216 39.2752 16.7169 39.3275 17.1068 39.4319C17.1944 39.4553 17.2809 39.4812 17.3661 39.5095C17.6032 39.5878 17.8316 39.6849 18.0505 39.7998C18.3096 39.9357 18.5553 40.097 18.786 40.2826C18.9366 40.4038 19.0785 40.5334 19.2111 40.6712C19.307 40.7705 19.3982 40.8738 19.4845 40.9813C19.75 40.7869 20.0359 40.6217 20.3402 40.4875C20.9221 40.2306 21.5418 40.1004 22.182 40.1004C22.8222 40.1004 23.4423 40.2306 24.0242 40.4875C24.3284 40.6217 24.6142 40.7867 24.8798 40.9813C25.0857 40.7247 25.3192 40.4912 25.5781 40.2828C25.6149 40.2531 25.6522 40.2241 25.6898 40.1958C25.9841 39.9735 26.3015 39.7895 26.6389 39.6454C26.8384 39.5604 27.0448 39.489 27.2574 39.4321C27.2691 39.429 27.2808 39.4258 27.2925 39.4229C27.9 39.2652 28.5204 39.2337 29.137 39.3292C29.4656 39.3802 29.7845 39.4658 30.0912 39.5849C30.2238 39.2838 30.3888 38.9978 30.5852 38.7294C30.9607 38.2159 31.4323 37.7933 31.9869 37.4732C32.5412 37.1529 33.1431 36.9557 33.7756 36.8872C34.1062 36.8513 34.4364 36.8514 34.7636 36.8872C34.8136 36.562 34.899 36.2429 35.0192 35.9328C35.2491 35.3397 35.5953 34.8095 36.0481 34.3567C36.058 34.3469 36.0678 34.3371 36.0778 34.3274C36.2459 34.1622 36.4245 34.0115 36.6129 33.8758C36.6688 33.8355 36.7258 33.7963 36.7836 33.7587C36.9161 33.6723 37.053 33.5928 37.1942 33.5206C37.3336 33.4493 37.477 33.3851 37.6244 33.3279C37.9345 33.2078 38.2534 33.1224 38.5786 33.0722C38.5429 32.7452 38.5429 32.4149 38.5786 32.0843C38.6471 31.4519 38.8442 30.85 39.1643 30.2955C39.4844 29.7409 39.9072 29.2693 40.4206 28.8936C40.689 28.6974 40.9751 28.5323 41.2762 28.3998C41.1569 28.0931 41.0713 27.774 41.0205 27.4454C40.923 26.8169 40.9576 26.1845 41.1233 25.5658C41.2892 24.9473 41.5753 24.3824 41.974 23.8869C42.1824 23.6278 42.4159 23.3943 42.6725 23.1882C42.478 22.9228 42.3127 22.637 42.1784 22.3328C41.9216 21.7509 41.7913 21.131 41.7913 20.4906ZM29.4102 17.3584L19.4809 27.2875L15.2623 23.0689C14.7516 22.5582 14.7516 21.7302 15.2623 21.2193C15.773 20.7086 16.6012 20.7086 17.1119 21.2193L19.4809 23.5885L27.5606 15.5088C28.0713 14.9981 28.8995 14.9981 29.4102 15.5088C29.9209 16.0195 29.9209 16.8477 29.4102 17.3584Z" fill="#0A0908"/>
</svg>
