<svg width="81" height="55" viewBox="0 0 81 55" fill="none" xmlns="http://www.w3.org/2000/svg">
<path d="M80.5691 16.043L65.7196 0.285426C65.3813 -0.0706764 64.8115 -0.0884815 64.4554 0.249816L58.2236 6.1255C57.8675 6.4638 57.8497 7.03357 58.188 7.38967L73.0375 23.1472C73.3758 23.5033 73.9455 23.5211 74.3017 23.1828L80.5334 17.3071C80.8895 16.9688 80.9073 16.3991 80.5691 16.043ZM75.1385 17.8413C74.3551 18.5713 73.1265 18.5357 72.3965 17.7522C71.6665 16.9688 71.7021 15.7403 72.4855 15.0103C73.269 14.2802 74.4975 14.3159 75.2275 15.0993C75.9575 15.8827 75.9219 17.1113 75.1385 17.8413ZM15.2955 2.43985C14.9038 2.13716 14.3518 2.20838 14.0491 2.60009L0.196757 20.4408C-0.10593 20.8325 -0.0347097 21.3845 0.357003 21.6872L7.15856 26.9753C7.55027 27.278 8.10223 27.2068 8.40492 26.8151L22.2573 8.97432C22.56 8.58261 22.4888 8.03065 22.097 7.72796L15.2955 2.43985ZM8.77882 21.0284C8.12003 21.883 6.89148 22.0255 6.03684 21.3667C5.18219 20.7079 5.03975 19.4793 5.69854 18.6247C6.35733 17.7701 7.58588 17.6276 8.44053 18.2864C9.29517 18.9452 9.43761 20.1737 8.77882 21.0284Z" fill="#1D1D1C"/>
<path d="M60.3414 38.3166L45.1002 26.4228L42.3226 28.969C38.4055 32.4944 34.8623 33.438 32.1915 33.438C31.5149 33.438 30.874 33.3668 30.322 33.2778C26.6541 32.6368 24.1792 30.3043 23.0575 28.2924C21.6865 26.1023 22.0782 23.3425 24.0368 21.562L34.9691 11.609C33.6872 10.6297 32.1559 10.1311 30.6425 10.1311C28.5237 10.1311 26.4049 11.0748 24.9983 12.8909L14.3152 26.6899C13.4428 27.8116 13.051 29.2182 13.2291 30.6248L13.9235 36.2334C14.1015 37.64 14.8137 38.922 15.9355 39.7945L34.6664 54.3947C35.1828 54.8042 35.806 55 36.4291 55C37.2126 55 37.9782 54.6795 38.548 54.0742L39.3848 53.1483C40.4887 51.9376 40.3641 50.0502 39.1177 48.9997L42.2692 51.6349C42.8034 52.08 43.4622 52.3115 44.121 52.3115C44.851 52.3115 45.5632 52.0444 46.1151 51.5102L47.0766 50.5844C48.3052 49.3914 48.2339 47.3973 46.9164 46.3111L49.2488 48.2519C49.783 48.697 50.4418 48.9107 51.0828 48.9107C51.8128 48.9107 52.5428 48.6436 53.0947 48.0917L53.9494 47.2548C55.1423 46.0797 55.0889 44.1389 53.8247 43.035L55.356 44.3704C55.9079 44.8333 56.5667 45.0648 57.2255 45.0648C58.0446 45.0648 58.8636 44.7087 59.4334 44.0321L60.7687 42.4474C61.8014 41.2011 61.6056 39.3315 60.3236 38.3344L60.3414 38.3166ZM67.784 24.0725L54.9287 10.9502C54.3767 10.3804 53.6467 10.0243 52.8455 9.91748L46.2576 9.06283C45.2249 8.92039 44.1744 9.25869 43.4088 9.95309L41.8597 11.3597L27.0459 24.8382C26.8856 24.9984 26.5117 25.4257 26.85 25.9421L26.939 26.1023C27.5088 27.1706 28.951 28.5416 31.1054 28.9155C33.6694 29.3607 36.5182 28.2389 39.3492 25.6928L44.8866 20.6184L62.3178 34.2215L67.7483 29.1292C69.1549 27.7582 69.1728 25.497 67.8018 24.0904L67.784 24.0725Z" fill="#1D1D1C"/>
</svg>
